<svg width="18" height="16" viewBox="0 0 18 16" fill="none" xmlns="http://www.w3.org/2000/svg">
<path d="M13.7245 15.1788C12.9757 15.0303 12.4632 14.3539 12.1714 13.6558L12.5674 13.6558C12.7363 13.6558 12.9035 13.6524 13.0688 13.6449C13.2404 13.9961 13.501 14.2998 13.8901 14.3606C14.0102 14.2567 14.1646 14.1917 14.336 14.1917C14.7142 14.1917 15.0207 14.4983 15.0207 14.8764C15.0207 15.2546 14.7141 15.5612 14.336 15.5612C14.0668 15.5612 13.8363 15.4045 13.7245 15.1788Z" fill="#2B2B2B"/>
<path d="M3.04449 15.5611C2.66629 15.5611 2.35976 15.2546 2.35976 14.8764C2.35976 14.4982 2.66632 14.1917 3.04449 14.1917C3.19555 14.1917 3.33407 14.2421 3.44717 14.3252C3.77936 14.2145 4.01793 13.9227 4.18376 13.5978C4.43734 13.6418 4.66282 13.6557 4.83197 13.6557L4.87683 13.6557L4.90276 13.6557L5.12988 13.6557C4.89079 14.3121 4.44821 14.9494 3.67321 15.1467C3.56844 15.3903 3.32652 15.5611 3.04449 15.5611Z" fill="#2B2B2B"/>
<path d="M4.16645 2.49066L5.56602 1.09082C5.82296 1.15631 6.61083 1.66437 6.84631 1.91017L4.98385 3.77264C4.73971 3.53908 4.23697 2.75902 4.16645 2.49066Z" fill="#2B2B2B"/>
<path d="M6.82572 3.01488C6.79002 3.01488 6.75438 3.00122 6.72704 2.9742L6.53 2.77716C6.51747 2.76463 6.50881 2.75014 6.50214 2.73507C6.47929 2.68381 6.48821 2.6222 6.53 2.58015C6.57182 2.53806 6.63369 2.52941 6.68496 2.55226C6.7 2.55893 6.71451 2.56788 6.72701 2.58015L6.92434 2.7769C6.97867 2.83125 6.97867 2.91958 6.92434 2.97394C6.89707 3.00122 6.86139 3.01488 6.82572 3.01488Z" fill="#2B2B2B"/>
<path d="M7.41635 3.6059C7.38068 3.6059 7.34503 3.59227 7.3177 3.56522L7.12065 3.36818C7.06633 3.31382 7.06633 3.22549 7.12065 3.17114C7.17498 3.11678 7.26334 3.11678 7.3177 3.17114L7.51474 3.36818C7.56906 3.42253 7.56906 3.51087 7.51474 3.56522C7.48743 3.59253 7.45205 3.6059 7.41635 3.6059Z" fill="#2B2B2B"/>
<path d="M8.00863 4.19718C7.97296 4.19718 7.93729 4.18352 7.90998 4.1565L7.71294 3.95949C7.65859 3.90513 7.65859 3.8168 7.71294 3.76244C7.76726 3.70809 7.85563 3.70809 7.90998 3.76244L8.10702 3.95949C8.16135 4.01381 8.16135 4.10218 8.10702 4.1565C8.07998 4.18352 8.04428 4.19718 8.00863 4.19718Z" fill="#2B2B2B"/>
<path d="M6.1094 3.12903C6.08655 3.07773 6.09521 3.01586 6.13726 2.97407C6.17935 2.93198 6.24096 2.92333 6.29222 2.94618C6.30726 2.95285 6.32174 2.9618 6.33428 2.97407L6.53132 3.17137C6.58567 3.22572 6.58567 3.31406 6.53132 3.36841C6.50398 3.39575 6.46834 3.4091 6.43267 3.4091C6.39696 3.4091 6.36132 3.39543 6.33398 3.36841L6.13694 3.17111C6.12476 3.15884 6.11611 3.14435 6.1094 3.12903Z" fill="#2B2B2B"/>
<path d="M6.72765 3.56542C6.78197 3.51107 6.87034 3.51107 6.92469 3.56542L7.12173 3.76247C7.17606 3.81682 7.17606 3.90515 7.12173 3.95951C7.0944 3.98681 7.05875 4.00019 7.02308 4.00019C6.98738 4.00019 6.95174 3.98655 6.9244 3.95951L6.72736 3.76247C6.6733 3.70811 6.6733 3.61975 6.72765 3.56542Z" fill="#2B2B2B"/>
<path d="M7.3181 4.15624C7.37243 4.10189 7.46079 4.10189 7.51514 4.15624L7.71219 4.35355C7.76651 4.4079 7.76651 4.49624 7.71219 4.55059C7.68485 4.5779 7.64921 4.59127 7.6135 4.59127C7.57783 4.59127 7.54219 4.57763 7.51485 4.55059L7.31781 4.35329C7.26372 4.29893 7.26372 4.2106 7.3181 4.15624Z" fill="#2B2B2B"/>
<path d="M6.03815 3.80274C6.00245 3.80274 5.96681 3.7891 5.9395 3.76205L5.74246 3.56501C5.7299 3.55248 5.72124 3.53796 5.71457 3.52293C5.69172 3.47166 5.70063 3.41005 5.74246 3.36797C5.78425 3.32588 5.84612 3.31726 5.89738 3.34011C5.91245 3.34678 5.9272 3.3557 5.93947 3.36797L6.13648 3.56501C6.19083 3.61936 6.19083 3.7077 6.13648 3.76205C6.10949 3.78936 6.07379 3.80274 6.03815 3.80274Z" fill="#2B2B2B"/>
<path d="M6.62851 4.39457C6.59281 4.39457 6.55717 4.38093 6.52983 4.35389L6.33279 4.15684C6.27847 4.10249 6.27847 4.01416 6.33279 3.95983C6.38714 3.90548 6.47548 3.90548 6.52983 3.95983L6.72687 4.15684C6.78123 4.2112 6.78123 4.29953 6.72687 4.35389C6.69983 4.38093 6.66416 4.39457 6.62851 4.39457Z" fill="#2B2B2B"/>
<path d="M7.22079 4.98542C7.18512 4.98542 7.14948 4.97178 7.12214 4.94474L6.9251 4.74769C6.87077 4.69334 6.87077 4.60501 6.9251 4.55065C6.97942 4.4963 7.06779 4.4963 7.12214 4.55065L7.31918 4.74769C7.37351 4.80205 7.37351 4.89038 7.31918 4.94474C7.29184 4.97178 7.2562 4.98542 7.22079 4.98542Z" fill="#2B2B2B"/>
<path d="M0.932378 6.68852L1.35042 6.68852L1.76846 6.68852L1.76846 0.278675C1.76846 0.124853 1.89302 7.78696e-07 2.04713 7.70945e-07L3.25774 7.10055e-07C3.32768 7.06537e-07 3.39515 0.026201 3.44668 0.0735598L4.44829 0.995759C4.67597 0.938084 4.93572 1.01581 5.09599 1.08103L4.13896 2.03832C4.06983 1.85996 4.00574 1.61638 4.0601 1.39623L3.14877 0.557377L2.3258 0.557377L2.3258 6.68852L16.3996 6.68852L16.8176 6.68852C17.1256 6.68852 17.375 6.93793 17.375 7.2459L17.375 7.80327C17.375 8.11121 17.1256 8.36065 16.8176 8.36065L16.7555 8.36065L16.6329 8.36065L16.4709 8.36065C16.4286 8.57634 16.3739 8.82439 16.3048 9.11032L15.9147 10.9798C15.3687 13.0003 14.2632 13.3283 12.953 13.3707C12.8262 13.3746 12.698 13.3771 12.5676 13.3771L12.0657 13.3771L5.22139 13.3774C5.22169 13.376 5.22195 13.3749 5.2225 13.3735C5.22221 13.3746 5.22192 13.376 5.22139 13.3771L4.83291 13.3771C4.67489 13.3771 4.49373 13.367 4.29949 13.3383C3.44251 13.2121 2.32942 12.7233 1.80941 11.1269L1.17541 8.36068L1.01042 8.36068L0.932378 8.36068C0.91731 8.36068 0.903407 8.35733 0.888631 8.35622C0.601564 8.33366 0.375001 8.0962 0.375001 7.8033L0.375001 7.24593C0.37503 6.93793 0.624444 6.68852 0.932378 6.68852ZM5.37466 12.5123C5.37466 12.5139 5.3744 12.5159 5.37411 12.5176C5.3744 12.5159 5.37466 12.5139 5.37466 12.5123Z" fill="#2B2B2B"/>
</svg>
