<svg width="94" height="69" viewBox="0 0 94 69" fill="none" xmlns="http://www.w3.org/2000/svg">
<path d="M7.90966 65.2588C7.90966 67.0096 6.5321 68.2407 4.54843 68.2407H0V58.0892H3.62171C5.51021 58.0892 6.85771 59.2446 6.85771 60.9197C6.85771 61.6715 6.57719 62.287 6.10131 62.7512C7.21337 63.1498 7.90966 64.0126 7.90966 65.2588ZM2.01373 59.8753V62.1962H3.4514C4.318 62.1962 4.78386 61.7169 4.78386 61.0257C4.78386 60.3193 4.318 59.8703 3.4514 59.8703H2.01373V59.8753ZM5.85084 65.1831C5.85084 64.396 5.30984 63.9066 4.39815 63.9066H2.01373V66.4596H4.39815C5.30984 66.4596 5.85084 65.9803 5.85084 65.1831Z" fill="#2B2B2B"/>
<path d="M17.0261 66.923H12.8434L12.2723 68.2449H10.0281L14.5966 57.9067H15.2929L19.8463 68.2449H17.6022L17.0261 66.923ZM14.9372 61.7816L13.5747 65.2126H16.2998L14.9372 61.7816Z" fill="#2B2B2B"/>
<path d="M21.9594 63.1641C21.9594 60.1823 24.3588 57.9017 27.4094 57.9017C29.3781 57.9017 31.0161 58.8705 31.9178 60.4245L30.3399 61.5294C29.6586 60.4547 28.6968 59.824 27.4145 59.824C25.5109 59.824 24.1184 61.2065 24.1184 63.1793C24.1184 65.1319 25.5109 66.4992 27.4145 66.4992C28.7018 66.4992 29.6586 65.8685 30.3399 64.7938L31.9178 65.8988C31.0362 67.4528 29.3781 68.4215 27.3944 68.4215C24.3588 68.4265 21.9594 66.151 21.9594 63.1641Z" fill="#2B2B2B"/>
<path d="M44.0063 57.9067V68.2449H41.9174V61.9532L35.9263 68.4315H35.2451V58.0934H37.3339V64.3246L43.31 57.9118H44.0063V57.9067Z" fill="#2B2B2B"/>
<path d="M68.5809 57.9067V68.2449H66.492V61.9532L60.5009 68.4315H59.8196V58.0934H61.9085V64.3246L67.8846 57.9118H68.5809V57.9067Z" fill="#2B2B2B"/>
<path d="M71.8785 63.1641C71.8785 60.1823 74.278 57.9017 77.3286 57.9017C79.2973 57.9017 80.9353 58.8705 81.837 60.4245L80.2591 61.5294C79.5778 60.4547 78.616 59.824 77.3336 59.824C75.4301 59.824 74.0375 61.2065 74.0375 63.1793C74.0375 65.1319 75.4301 66.4992 77.3336 66.4992C78.621 66.4992 79.5778 65.8685 80.2591 64.7938L81.837 65.8988C80.9554 67.4528 79.2973 68.4215 77.3136 68.4215C74.278 68.4265 71.8785 66.151 71.8785 63.1641Z" fill="#2B2B2B"/>
<path d="M91.1807 66.923H86.998L86.4269 68.2449H84.1827L88.7512 57.9067H89.4475L94.0009 68.2449H91.7568L91.1807 66.923ZM89.0918 61.7816L87.7293 65.2126H90.4544L89.0918 61.7816Z" fill="#2B2B2B"/>
<path d="M52.2564 57.9067H51.5602L46.9967 68.2449H49.2409L51.9008 61.7816L54.5657 68.2449H56.8099L52.2564 57.9067Z" fill="#2B2B2B"/>
<path d="M65.0957 0.559956C63.8433 -0.0707252 62.4157 -0.171634 61.0882 0.272365C60.7777 0.37832 60.4871 0.509502 60.2066 0.66591C60.1465 0.630592 60.0914 0.595274 60.0263 0.565001C58.774 -0.0656797 57.3463 -0.171634 56.0189 0.277411C54.6864 0.72141 53.6094 1.66491 52.9832 2.92627L46.9921 14.9193L40.8858 2.92627C40.2597 1.66491 39.1776 0.72141 37.8502 0.277411C36.5177 -0.166589 35.0951 -0.0656797 33.8428 0.565001C33.7776 0.595274 33.7225 0.635638 33.6624 0.670956C32.1997 -0.141361 30.3763 -0.24227 28.7734 0.565001C26.1836 1.87177 25.1316 5.05545 26.429 7.66395L40.1494 35.0254C40.3298 35.4745 40.5352 35.9134 40.7956 36.3271C42.1932 38.5774 44.5376 39.9195 47.0623 39.9195C49.617 39.9195 51.9714 38.5572 53.3689 36.2716C53.5793 35.9235 53.7597 35.5653 53.9149 35.202C53.93 35.1768 53.95 35.1566 53.965 35.1263L67.44 7.66395C68.7374 5.05041 67.6855 1.86673 65.0957 0.559956ZM42.5539 27.0889L44.3623 23.325L45.9402 26.4683L44.0968 30.3029L42.5539 27.0889ZM33.6524 2.54282C33.973 2.8405 34.2485 3.19873 34.4539 3.61245L43.5007 21.6045L41.7073 25.3331L32.8509 6.97272C32.0945 5.449 32.4702 3.64777 33.6524 2.54282ZM46.947 17.9516L48.8055 21.6499L47.0322 25.2372L45.1988 21.5894L46.947 17.9516ZM48.6652 33.0476C48.6001 33.1889 48.5149 33.31 48.4198 33.421C48.4047 33.4411 48.3847 33.4664 48.3697 33.4866C48.0391 33.8549 47.5732 34.0668 47.0522 34.0718C46.8318 34.0769 46.6264 34.0365 46.4261 33.9659C46.366 33.9406 46.3059 33.9205 46.2508 33.8902C46.2207 33.8751 46.1906 33.8599 46.1656 33.8448C45.9151 33.6934 45.6997 33.4815 45.5294 33.2091C45.1287 32.5632 45.0836 31.761 45.4192 31.0698L47.0272 27.7297L48.6903 31.0395C49.0109 31.6803 48.9908 32.4169 48.6652 33.0476ZM49.9927 30.2474L48.1092 26.4936L49.6571 23.3553L51.5105 27.0435L49.9927 30.2474ZM50.5036 21.6449L59.4101 3.61245C59.6155 3.20377 59.891 2.85059 60.2166 2.54786C61.3988 3.65786 61.7695 5.45909 61.0081 6.9929L52.342 25.3028L50.5036 21.6449ZM54.3357 3.61245C54.7816 2.71436 55.548 2.04836 56.4947 1.7305C57.2712 1.46814 58.0977 1.47823 58.8591 1.74059C58.5385 2.09377 58.263 2.49236 58.0476 2.93132L49.647 19.9395L47.9138 16.4884L54.3357 3.61245ZM37.3643 1.72545C38.311 2.04332 39.0775 2.70932 39.5233 3.6175L46.0153 16.3623L44.3272 19.8739L35.8114 2.92627C35.591 2.48227 35.3105 2.08873 34.9949 1.73555C35.3806 1.60436 35.7814 1.53373 36.1821 1.53373C36.5828 1.53373 36.9786 1.59932 37.3643 1.72545ZM27.5762 4.10691C27.8917 3.15332 28.553 2.38136 29.4446 1.93232C30.3713 1.46309 31.3982 1.42273 32.3049 1.73555C30.8873 3.30468 30.4865 5.65081 31.4834 7.65386L40.8558 27.094L40.3498 28.1434C39.9741 28.9305 39.7387 29.7529 39.6084 30.5804L27.7815 6.97272C27.3357 6.07463 27.2606 5.0605 27.5762 4.10691ZM52.0715 35.4644C50.9394 37.3211 49.111 38.3857 47.0623 38.3857C45.0335 38.3857 43.2201 37.3413 42.083 35.5148C41.8977 35.2171 41.7474 34.9094 41.6122 34.5966C41.6021 34.5562 41.5971 34.5209 41.5821 34.4805L41.527 34.3695C40.8307 32.5986 40.8808 30.6157 41.7174 28.8447L44.0667 33.7187C44.3072 34.2181 44.6628 34.6319 45.0836 34.9447C45.1136 34.9649 45.1387 34.9851 45.1687 35.0052C45.2339 35.0506 45.299 35.0961 45.3641 35.1364C45.8751 35.4543 46.4561 35.6309 47.0673 35.6309C48.2194 35.6309 49.2764 35.0204 49.9025 33.9961C50.0177 33.8095 50.1079 33.6127 50.188 33.4109L52.3821 28.7741C53.424 30.9285 53.3188 33.426 52.0715 35.4644ZM66.0825 6.97777L54.501 30.5703C54.3658 29.6924 54.1103 28.8296 53.6996 28.0072L53.2036 27.0183L62.3706 7.65386C63.3675 5.64577 62.9717 3.29963 61.5541 1.72545C61.5591 1.72545 61.5641 1.72041 61.5691 1.72041C62.5159 1.40255 63.5278 1.47823 64.4194 1.92727C66.2578 2.86068 67.0042 5.12104 66.0825 6.97777Z" fill="#2B2B2B"/>
</svg>
