<svg width="17" height="14" viewBox="0 0 17 14" fill="none" xmlns="http://www.w3.org/2000/svg">
<path d="M14.9526 5.69749C15.0922 6.23634 15.1629 6.7911 15.1629 7.35344C15.1629 10.7976 12.5044 13.6415 9.10227 14V10.9476L9.66989 10.6681C10.0292 10.4911 10.1748 10.061 9.99507 9.70716C9.81553 9.35334 9.37859 9.2099 9.01951 9.38691L8.375 9.70416L7.73049 9.38672C7.37122 9.2099 6.93447 9.35334 6.75493 9.70697C6.57519 10.0608 6.72084 10.4911 7.08012 10.6679L7.64773 10.9476V14C4.24564 13.6415 1.58712 10.7976 1.58712 7.35349C1.58712 6.79114 1.65776 6.23639 1.79735 5.69753C0.926322 5.13084 0.375001 4.15646 0.375001 3.10373C0.375001 1.39238 1.78882 0 3.52652 0C4.47425 0 5.35153 0.413321 5.94281 1.11056C6.71628 0.816948 7.53161 0.668495 8.375 0.668495C9.21839 0.668495 10.0337 0.816948 10.8072 1.11056C11.3985 0.413321 12.2758 0 13.2235 0C14.9612 0 16.375 1.39238 16.375 3.10373C16.375 4.15646 15.8237 5.13084 14.9526 5.69749ZM5.70833 6.58945C5.30664 6.58945 4.98106 6.91009 4.98106 7.30569C4.98106 7.7013 5.30664 8.02194 5.70833 8.02194C6.11003 8.02194 6.43561 7.7013 6.43561 7.30569C6.43561 6.91009 6.11003 6.58945 5.70833 6.58945ZM11.0417 6.58945C10.64 6.58945 10.3144 6.91009 10.3144 7.30569C10.3144 7.7013 10.64 8.02194 11.0417 8.02194C11.4434 8.02194 11.7689 7.7013 11.7689 7.30569C11.7689 6.91009 11.4434 6.58945 11.0417 6.58945Z" fill="#2B2B2B"/>
<Circe cx="5.475" cy="7.1" r="1.1" fill="white"/>
<path fill-rule="evenodd" clip-rule="evenodd" d="M5.28967 3.00006C5.28478 3.00002 5.27989 3 5.275 3C4.22566 3 3.375 3.85066 3.375 4.9C3.375 4.90489 3.37502 4.90978 3.37506 4.91467C2.79243 4.70876 2.375 4.15313 2.375 3.5C2.375 2.67157 3.04657 2 3.875 2C4.52813 2 5.08376 2.41743 5.28967 3.00006Z" fill="white"/>
<path fill-rule="evenodd" clip-rule="evenodd" d="M11.375 3.00006C11.3799 3.00002 11.3848 3 11.3897 3C12.439 3 13.2897 3.85066 13.2897 4.9C13.2897 4.90489 13.2897 4.90978 13.2896 4.91467C13.8722 4.70876 14.2897 4.15313 14.2897 3.5C14.2897 2.67157 13.6181 2 12.7897 2C12.1365 2 11.5809 2.41743 11.375 3.00006Z" fill="white"/>
<Circe cx="11.475" cy="7.1" r="1.1" fill="white"/>
</svg>
