<svg width="19" height="16" viewBox="0 0 19 16" fill="none" xmlns="http://www.w3.org/2000/svg">
<path d="M16.935 7.19998L16.935 14.4C16.935 14.7974 17.2576 15.12 17.655 15.12C18.0524 15.12 18.375 14.7974 18.375 14.4L18.375 7.19998C18.375 6.80254 18.0524 6.47998 17.655 6.47998C17.2576 6.47998 16.935 6.80254 16.935 7.19998Z" fill="#2B2B2B"/>
<path d="M0.375031 7.19995L18.375 7.19995L18.375 13.68L0.375032 13.68L0.375031 7.19995Z" fill="#2B2B2B"/>
<path d="M16.935 1.44L16.935 5.76L15.495 5.76L15.495 5.04C15.495 4.64256 15.1725 4.32 14.775 4.32L10.815 4.32C10.4176 4.32 10.095 4.64256 10.095 5.04L10.095 5.76576L8.65503 5.76576L8.65503 5.04C8.65503 4.64256 8.33247 4.32 7.93503 4.32L3.97503 4.32C3.57759 4.32 3.25503 4.64256 3.25503 5.04L3.25503 5.76L1.81503 5.76L1.81503 1.44C1.81503 0.644401 2.45943 7.28074e-07 3.25503 6.88058e-07L15.495 7.24271e-08C16.2906 3.24111e-08 16.935 0.6444 16.935 1.44Z" fill="#2B2B2B"/>
<path d="M0.375003 7.19998L0.375004 14.4C0.375004 14.7974 0.697564 15.12 1.095 15.12C1.49244 15.12 1.815 14.7974 1.815 14.4L1.815 7.19998C1.815 6.80254 1.49244 6.47998 1.095 6.47998C0.697562 6.47998 0.375003 6.80254 0.375003 7.19998Z" fill="#2B2B2B"/>
</svg>
