<svg width="15" height="15" viewBox="0 0 15 15" fill="none" xmlns="http://www.w3.org/2000/svg">
<path d="M13.375 0H1.625C1.07272 0 0.625 0.447715 0.625 1V12.75C0.625 13.3023 1.07272 13.75 1.625 13.75H13.375C13.9273 13.75 14.375 13.3023 14.375 12.75V1C14.375 0.447715 13.9273 0 13.375 0Z" fill="#2B2B2B"/>
<path d="M10.305 6.20846C11.5613 6.20846 12.5797 5.19004 12.5797 3.93376C12.5797 2.67748 11.5613 1.65906 10.305 1.65906C9.04871 1.65906 8.03029 2.67748 8.03029 3.93376C8.03029 5.19004 9.04871 6.20846 10.305 6.20846Z" fill="white"/>
<path d="M4.69499 6.20846C5.95127 6.20846 6.96969 5.19004 6.96969 3.93376C6.96969 2.67748 5.95127 1.65906 4.69499 1.65906C3.43871 1.65906 2.42029 2.67748 2.42029 3.93376C2.42029 5.19004 3.43871 6.20846 4.69499 6.20846Z" fill="white"/>
<path d="M10.305 12.091C11.5613 12.091 12.5797 11.0726 12.5797 9.81633C12.5797 8.56004 11.5613 7.54163 10.305 7.54163C9.04871 7.54163 8.03029 8.56004 8.03029 9.81633C8.03029 11.0726 9.04871 12.091 10.305 12.091Z" fill="white"/>
<path d="M4.69499 12.091C5.95127 12.091 6.96969 11.0726 6.96969 9.81633C6.96969 8.56004 5.95127 7.54163 4.69499 7.54163C3.43871 7.54163 2.42029 8.56004 2.42029 9.81633C2.42029 11.0726 3.43871 12.091 4.69499 12.091Z" fill="white"/>
<rect x="2.625" y="12" width="2" height="3" rx="1" fill="#2B2B2B"/>
<rect x="6.625" y="12" width="2" height="3" rx="1" fill="#2B2B2B"/>
<rect x="10.625" y="12" width="2" height="3" rx="1" fill="#2B2B2B"/>
</svg>
