<svg width="145" height="106" viewBox="0 0 145 106" fill="none" xmlns="http://www.w3.org/2000/svg">
<path d="M12.201 100.664C12.201 103.365 10.076 105.264 7.01613 105.264H0V89.605H5.58663C8.49971 89.605 10.5783 91.3872 10.5783 93.9711C10.5783 95.1308 10.1456 96.0803 9.4115 96.7963C11.1269 97.4111 12.201 98.742 12.201 100.664ZM3.10626 92.3601V95.9402H5.32391C6.66068 95.9402 7.3793 95.2008 7.3793 94.1346C7.3793 93.045 6.66068 92.3523 5.32391 92.3523H3.10626V92.3601ZM9.02515 100.548C9.02515 99.3335 8.19063 98.5786 6.78432 98.5786H3.10626V102.517H6.78432C8.19063 102.517 9.02515 101.777 9.02515 100.548Z" fill="#2B2B2B"/>
<path d="M26.2635 103.232H19.8115L18.9306 105.271H15.4689L22.5159 89.3237H23.59L30.6138 105.271H27.1521L26.2635 103.232ZM23.0413 95.3009L20.9396 100.593H25.1431L23.0413 95.3009Z" fill="#2B2B2B"/>
<path d="M33.8734 97.4334C33.8734 92.8337 37.5747 89.3159 42.2804 89.3159C45.3171 89.3159 47.8439 90.8102 49.2347 93.2073L46.8007 94.9117C45.7498 93.254 44.2662 92.2812 42.2881 92.2812C39.3519 92.2812 37.2038 94.4137 37.2038 97.4567C37.2038 100.469 39.3519 102.578 42.2881 102.578C44.274 102.578 45.7498 101.605 46.8007 99.9472L49.2347 101.652C47.8748 104.049 45.3171 105.543 42.2572 105.543C37.5747 105.551 33.8734 102.041 33.8734 97.4334Z" fill="#2B2B2B"/>
<path d="M67.8815 89.3237V105.271H64.6593V95.5655L55.4178 105.559H54.3669V89.6117H57.5891V99.2235L66.8074 89.3315H67.8815V89.3237Z" fill="#2B2B2B"/>
<path d="M105.788 89.3237V105.271H102.566V95.5655L93.3246 105.559H92.2737V89.6117H95.4959V99.2235L104.714 89.3315H105.788V89.3237Z" fill="#2B2B2B"/>
<path d="M110.876 97.4334C110.876 92.8337 114.577 89.3159 119.283 89.3159C122.319 89.3159 124.846 90.8102 126.237 93.2073L123.803 94.9117C122.752 93.254 121.269 92.2812 119.29 92.2812C116.354 92.2812 114.206 94.4137 114.206 97.4567C114.206 100.469 116.354 102.578 119.29 102.578C121.276 102.578 122.752 101.605 123.803 99.9472L126.237 101.652C124.877 104.049 122.319 105.543 119.26 105.543C114.577 105.551 110.876 102.041 110.876 97.4334Z" fill="#2B2B2B"/>
<path d="M140.649 103.232H134.197L133.317 105.271H129.855L136.902 89.3237H137.976L145 105.271H141.538L140.649 103.232ZM137.427 95.3009L135.326 100.593H139.529L137.427 95.3009Z" fill="#2B2B2B"/>
<path d="M80.6076 89.3237H79.5335L72.4942 105.271H75.9559L80.0589 95.3009L84.1697 105.271H87.6314L80.6076 89.3237Z" fill="#2B2B2B"/>
<path d="M100.413 0.863754C98.4813 -0.109096 96.2791 -0.264752 94.2314 0.420134C93.7523 0.583573 93.3042 0.785926 92.8715 1.02719C92.7787 0.972713 92.6937 0.918234 92.5933 0.871537C90.6615 -0.101314 88.4593 -0.264752 86.4117 0.427917C84.3563 1.1128 82.695 2.56819 81.7291 4.51389L72.4876 23.0136L63.0684 4.51389C62.1025 2.56819 60.4335 1.1128 58.3858 0.427917C56.3304 -0.25697 54.136 -0.101314 52.2042 0.871537C52.1037 0.918234 52.0188 0.980496 51.926 1.03498C49.6697 -0.218056 46.8571 -0.373712 44.3845 0.871537C40.3896 2.88728 38.7669 7.79823 40.7682 11.8219L61.9325 54.0281C62.2107 54.7207 62.5275 55.3978 62.9293 56.036C65.0851 59.5072 68.7014 61.5774 72.5958 61.5774C76.5366 61.5774 80.1683 59.476 82.3241 55.9504C82.6486 55.4134 82.9268 54.8608 83.1663 54.3005C83.1895 54.2616 83.2204 54.2304 83.2436 54.1837L104.029 11.8219C106.031 7.79045 104.408 2.8795 100.413 0.863754ZM65.6415 41.7857L68.4309 35.9798L70.8649 40.8284L68.0214 46.7434L65.6415 41.7857ZM51.9106 3.9224C52.4051 4.38158 52.8301 4.93416 53.1469 5.57235L67.1019 33.3258L64.3356 39.0773L50.6743 10.7557C49.5075 8.40529 50.087 5.62683 51.9106 3.9224ZM72.4181 27.6911L75.2848 33.3959L72.5494 38.9294L69.7213 33.3025L72.4181 27.6911ZM75.0684 50.9772C74.968 51.1951 74.8366 51.3819 74.6898 51.5531C74.6666 51.5843 74.6357 51.6232 74.6125 51.6543C74.1026 52.2225 73.3839 52.5493 72.5803 52.5571C72.2403 52.5649 71.9235 52.5026 71.6145 52.3937C71.5217 52.3548 71.429 52.3236 71.344 52.2769C71.2977 52.2536 71.2513 52.2302 71.2127 52.2069C70.8263 51.9734 70.494 51.6465 70.2313 51.2263C69.6132 50.2301 69.5436 48.9926 70.0613 47.9264L72.5417 42.7741L75.1071 47.8797C75.6016 48.8681 75.5707 50.0044 75.0684 50.9772ZM77.1161 46.6578L74.2107 40.8674L76.5984 36.0265L79.4574 41.7157L77.1161 46.6578ZM77.9042 33.3881L91.6429 5.57235C91.9597 4.94194 92.3847 4.39715 92.8869 3.93018C94.7105 5.64239 95.2823 8.42085 94.1078 10.7868L80.7401 39.0306L77.9042 33.3881ZM83.8154 5.57235C84.5031 4.18701 85.6853 3.15968 87.1458 2.66936C88.3434 2.26466 89.6184 2.28022 90.7929 2.68493C90.2984 3.22973 89.8734 3.84457 89.5411 4.52167L76.5829 30.7575L73.9094 25.4341L83.8154 5.57235ZM57.6363 2.66158C59.0967 3.1519 60.2789 4.17923 60.9666 5.58013L70.9808 25.2395L68.3768 30.6563L55.2409 4.51389C54.9009 3.829 54.4682 3.22194 53.9814 2.67715C54.5764 2.47479 55.1946 2.36583 55.8127 2.36583C56.4309 2.36583 57.0413 2.46701 57.6363 2.66158ZM42.5377 6.33506C43.0245 4.86411 44.0445 3.67335 45.4199 2.98068C46.8494 2.25688 48.4334 2.19461 49.832 2.67715C47.6453 5.0976 47.0271 8.7166 48.5648 11.8064L63.022 41.7935L62.2416 43.4123C61.6621 44.6264 61.2989 45.895 61.098 47.1714L42.8545 10.7557C42.1668 9.37036 42.0509 7.80601 42.5377 6.33506ZM80.3228 54.7052C78.5765 57.5693 75.7561 59.2114 72.5958 59.2114C69.4663 59.2114 66.6692 57.6004 64.9151 54.783C64.6292 54.3238 64.3974 53.8491 64.1888 53.3665C64.1733 53.3043 64.1656 53.2498 64.1424 53.1875L64.0574 53.0163C62.9834 50.2845 63.0607 47.2259 64.3511 44.4941L67.975 52.0123C68.3459 52.7828 68.8946 53.421 69.5436 53.9036C69.59 53.9347 69.6286 53.9658 69.675 53.9969C69.7754 54.067 69.8759 54.137 69.9763 54.1993C70.7645 54.6896 71.6608 54.962 72.6035 54.962C74.3807 54.962 76.0111 54.0203 76.977 52.4404C77.1547 52.1524 77.2938 51.8489 77.4174 51.5376L80.8019 44.3852C82.4091 47.7084 82.2468 51.5609 80.3228 54.7052ZM101.935 10.7635L84.0704 47.1559C83.8618 45.8017 83.4677 44.4708 82.8341 43.2022L82.0691 41.6768L96.2095 11.8064C97.7472 8.70882 97.1368 5.08982 94.95 2.66158C94.9578 2.66158 94.9655 2.6538 94.9732 2.6538C96.4336 2.16348 97.9945 2.28022 99.3699 2.97289C102.206 4.41271 103.357 7.89941 101.935 10.7635Z" fill="#2B2B2B"/>
</svg>
